<?xml version="1.0" encoding="utf-8"?>
<!-- Generator: Adobe Illustrator 16.0.4, SVG Export Plug-In . SVG Version: 6.00 Build 0)  -->
<!DOCTYPE svg PUBLIC "-//W3C//DTD SVG 1.1//EN" "http://www.w3.org/Graphics/SVG/1.1/DTD/svg11.dtd">
<svg version="1.1" xmlns="http://www.w3.org/2000/svg" xmlns:xlink="http://www.w3.org/1999/xlink" x="0px" y="0px"
	 width="472.72px" height="557px" viewBox="0 0 472.72 557" enable-background="new 0 0 472.72 557" xml:space="preserve">
<g id="Layer_6">
	<path fill="#FFFFFF" d="M336,43L89,236c0,0,42.851-19.993,56-10c25,19-79,238-145,331l216.278-128.616l-30.691,64.012
		c68.618-49.611,187.835-127.513,287.133-190.938C454.282,313.234,294.815,299.26,422,73l-54.998,60.216L441,0L293.851,102.047
		L336,43z"/>
	<path fill="#FFFFFF" stroke="#000000" stroke-miterlimit="10" d="M200.501,470.21"/>
</g>
<g id="Layer_9">
	<g id="Layer_3">
		<g id="Layer_7">
			<path fill="#303030" d="M158.355,259.358c0,0,2.768,22.16-48.005,171.708l-70.713,81.659
				C98.418,421.733,140.21,320.882,158.355,259.358z"/>
		</g>
		<path fill="#303030" d="M306.831,277.071l-89.548,177.348L326.282,379C326.282,379,285.794,359.251,306.831,277.071z"/>
		<g id="Layer_5">
			<g>
				<path fill="#213367" d="M272.891,235.802c3.834-27.509,11.785-60.523,0.035-58.644l-12.733,73.847l-43.946,52.629l0,0
					c1.95-19.771,23.15-102.848,6.148-100.521L198.153,325.3l0,0l0,0l-75.871,92.851c-5.99,16.975,85.384-221.483,18.051-208.817
					L283.582,98.815l-45.795,61.219L362.21,67.196l-40.412,110.041L272.891,235.802z"/>
			</g>
		</g>
		<path fill="#F15523" d="M234.483,298.604C194.74,352.108,51.011,514.69,51.011,514.69l180.66-112.235l90.751-168.036
			c-30.134,115.26,15.897,136.59,15.897,136.59L421,317c-6.767-0.166-106.436-17.642-47.978-173.992
			C373.022,143.008,309.867,197.107,234.483,298.604z"/>
	</g>
	<g id="Layer_8">
		<polygon fill="#303030" points="329.65,174.406 370.159,62.309 412.503,30.714 		"/>
	</g>
</g>
</svg>
