<svg xmlns="http://www.w3.org/2000/svg" xml:space="preserve" width="472.72" height="557"><path fill="#FFF" d="M336 43 89 236s42.851-19.993 56-10c25 19-79 238-145 331l216.278-128.616-30.691 64.012c68.618-49.611 187.835-127.513 287.133-190.938C454.282 313.234 294.815 299.26 422 73l-54.998 60.216L441 0 293.851 102.047 336 43z"/><path fill="#303030" d="M158.355 259.358s2.768 22.16-48.005 171.708l-70.713 81.659c58.781-90.992 100.573-191.843 118.718-253.367zm148.476 17.713-89.548 177.348L326.282 379s-40.488-19.749-19.451-101.929z"/><path fill="#213367" d="M272.891 235.802c3.834-27.509 11.785-60.523.035-58.644l-12.733 73.847-43.946 52.629c1.95-19.771 23.15-102.848 6.148-100.521L198.153 325.3l-75.871 92.851c-5.99 16.975 85.384-221.483 18.051-208.817L283.582 98.815l-45.795 61.219L362.21 67.196l-40.412 110.041-48.907 58.565z"/><path fill="#F15523" d="M234.483 298.604C194.74 352.108 51.011 514.69 51.011 514.69l180.66-112.235 90.751-168.036c-30.134 115.26 15.897 136.59 15.897 136.59L421 317c-6.767-.166-106.436-17.642-47.978-173.992 0 0-63.155 54.099-138.539 155.596z"/><path fill="#303030" d="m329.65 174.406 40.509-112.097 42.344-31.595z"/></svg>